<svg width="150" height="150" viewBox="0 0 150 150" fill="none" xmlns="http://www.w3.org/2000/svg">
<path fill-rule="evenodd" clip-rule="evenodd" d="M103.125 65.625C79.8516 65.625 60.9375 84.5297 60.9375 107.812C60.9375 131.095 79.8516 150 103.125 150C126.398 150 145.313 131.095 145.313 107.812C145.313 84.5297 126.398 65.625 103.125 65.625ZM103.125 75C121.242 75 135.938 89.7023 135.938 107.812C135.938 125.923 121.242 140.625 103.125 140.625C85.0078 140.625 70.3125 125.923 70.3125 107.812C70.3125 89.7023 85.0078 75 103.125 75ZM117.188 57.1008V32.8125C117.188 14.6906 102.492 0 84.375 0H37.5C28.8047 0 20.4609 3.45703 14.2969 9.61172C11.2481 12.657 8.83006 16.2738 7.18113 20.2549C5.53221 24.2361 4.68482 28.5034 4.68751 32.8125V107.812C4.68751 116.515 8.13282 124.861 14.2969 131.013C20.4524 137.165 28.7977 140.622 37.5 140.625H59.9063C62.5078 140.625 64.5938 138.525 64.5938 135.938C64.5938 133.35 62.5078 131.25 59.9063 131.25H37.5C31.2891 131.25 25.3125 128.78 20.9297 124.385C18.7509 122.21 17.0228 119.627 15.8444 116.783C14.666 113.939 14.0604 110.891 14.0625 107.812V32.8125C14.0604 29.7341 14.666 26.6856 15.8444 23.8417C17.0228 20.9979 18.7509 18.4145 20.9297 16.2398C23.1053 14.0631 25.6885 12.3365 28.5317 11.1586C31.375 9.98065 34.4224 9.37458 37.5 9.375H84.375C97.3125 9.375 107.813 19.868 107.813 32.8125V57.1008C107.813 59.6883 109.922 61.7883 112.5 61.7883C115.078 61.7883 117.188 59.6883 117.188 57.1008ZM119.531 103.125H107.813V84.375C107.813 81.7875 105.703 79.6875 103.125 79.6875C100.547 79.6875 98.4375 81.7875 98.4375 84.375V107.812C98.4375 110.402 100.523 112.5 103.125 112.5H119.531C122.109 112.5 124.219 110.4 124.219 107.812C124.219 105.225 122.109 103.125 119.531 103.125ZM35.1563 93.75H55.0781C57.6797 93.75 59.7656 91.65 59.7656 89.0625C59.7656 86.475 57.6797 84.375 55.0781 84.375H35.1563C32.5781 84.375 30.4688 86.475 30.4688 89.0625C30.4688 91.65 32.5781 93.75 35.1563 93.75ZM35.1563 75H67.7578C70.3359 75 72.4453 72.9 72.4453 70.3125C72.4453 67.725 70.3359 65.625 67.7578 65.625H35.1563C32.5781 65.625 30.4688 67.725 30.4688 70.3125C30.4688 72.9 32.5781 75 35.1563 75ZM35.1563 56.25H86.7188C89.2969 56.25 91.4063 54.15 91.4063 51.5625C91.4063 48.975 89.2969 46.875 86.7188 46.875H35.1563C32.5781 46.875 30.4688 48.975 30.4688 51.5625C30.4688 54.15 32.5781 56.25 35.1563 56.25Z" fill="white"/>
</svg>
