<svg width="609" height="462" viewBox="0 0 609 462" fill="none" xmlns="http://www.w3.org/2000/svg">
<g filter="url(#filter0_f_74_4794)">
<circle cx="305" cy="231" r="131" fill="#246BC6" fill-opacity="0.2"/>
</g>
<g filter="url(#filter1_d_74_4794)">
<rect x="254.56" y="183.33" width="100.09" height="100.09" rx="50.045" fill="#246BC6" fill-opacity="0.1" shape-rendering="crispEdges"/>
</g>
<g opacity="0.1">
<rect x="223.71" y="152.48" width="161.8" height="161.8" rx="80.9" fill="#246BC6"/>
</g>
<path d="M330.343 212L310.879 232.754L330.805 254H323.852L307.402 236.461L290.953 254H284L297.383 239.73L307.402 229.047L323.39 212H330.343ZM303.924 225.337L300.453 229.052L284.462 212H291.415L303.924 225.337Z" fill="#0abab5"/>
<path d="M384.5 212.843H457.036C475 212.843 507.131 207.343 507.945 169.049C508.964 121.181 480.615 55.5 565.124 55.5L605.124 55.5" stroke="url(#paint0_linear_74_4794)"/>
<path d="M379 261H453.981C472.551 261 505.765 266.488 506.607 304.702C507.659 352.47 480.294 425 567.652 425L609 425" stroke="url(#paint1_linear_74_4794)"/>
<path d="M224.5 212.843H151.964C134 212.843 101.869 207.343 101.055 169.049C100.036 121.181 128.385 55.5 43.8756 55.5L3.87564 55.5" stroke="url(#paint2_linear_74_4794)"/>
<path d="M230 261H155.019C136.449 261 103.235 266.488 102.393 304.702C101.341 352.47 128.706 425 41.3483 425L1.78814e-06 425" stroke="url(#paint3_linear_74_4794)"/>
<defs>
<filter id="filter0_f_74_4794" x="74" y="0" width="462" height="462" filterUnits="userSpaceOnUse" color-interpolation-filters="sRGB">
<feFlood flood-opacity="0" result="BackgroundImageFix"/>
<feBlend mode="normal" in="SourceGraphic" in2="BackgroundImageFix" result="shape"/>
<feGaussianBlur stdDeviation="50" result="effect1_foregroundBlur_74_4794"/>
</filter>
<filter id="filter1_d_74_4794" x="241.56" y="170.33" width="126.09" height="126.09" filterUnits="userSpaceOnUse" color-interpolation-filters="sRGB">
<feFlood flood-opacity="0" result="BackgroundImageFix"/>
<feColorMatrix in="SourceAlpha" type="matrix" values="0 0 0 0 0 0 0 0 0 0 0 0 0 0 0 0 0 0 127 0" result="hardAlpha"/>
<feOffset/>
<feGaussianBlur stdDeviation="6.5"/>
<feComposite in2="hardAlpha" operator="out"/>
<feColorMatrix type="matrix" values="0 0 0 0 0 0 0 0 0 0 0 0 0 0 0 0 0 0 0.3 0"/>
<feBlend mode="normal" in2="BackgroundImageFix" result="effect1_dropShadow_74_4794"/>
<feBlend mode="normal" in="SourceGraphic" in2="effect1_dropShadow_74_4794" result="shape"/>
</filter>
<linearGradient id="paint0_linear_74_4794" x1="629" y1="39" x2="379.451" y2="224.934" gradientUnits="userSpaceOnUse">
<stop stop-color="#246BC6" stop-opacity="0"/>
<stop offset="0.528846" stop-color="#246BC6"/>
<stop offset="1" stop-color="#246BC6" stop-opacity="0"/>
</linearGradient>
<linearGradient id="paint1_linear_74_4794" x1="633.89" y1="442.198" x2="373.769" y2="248.353" gradientUnits="userSpaceOnUse">
<stop stop-color="#246BC6" stop-opacity="0"/>
<stop offset="0.528846" stop-color="#246BC6"/>
<stop offset="1" stop-color="#246BC6" stop-opacity="0"/>
</linearGradient>
<linearGradient id="paint2_linear_74_4794" x1="-20" y1="39" x2="229.549" y2="224.934" gradientUnits="userSpaceOnUse">
<stop stop-color="#246BC6" stop-opacity="0"/>
<stop offset="0.528846" stop-color="#246BC6"/>
<stop offset="1" stop-color="#246BC6" stop-opacity="0"/>
</linearGradient>
<linearGradient id="paint3_linear_74_4794" x1="-24.8902" y1="442.198" x2="235.231" y2="248.353" gradientUnits="userSpaceOnUse">
<stop stop-color="#246BC6" stop-opacity="0"/>
<stop offset="0.528846" stop-color="#246BC6"/>
<stop offset="1" stop-color="#246BC6" stop-opacity="0"/>
</linearGradient>
</defs>
</svg>
