<svg width="1917" height="1811" viewBox="0 0 1917 1811" fill="none" xmlns="http://www.w3.org/2000/svg">
<path d="M615.496 173.096C614.898 173.096 614.29 172.967 613.711 172.692C611.634 171.704 610.754 169.22 611.74 167.141L642.748 101.941C672.196 40.016 735.58 0 804.228 0C840.059 0 874.733 10.7 904.496 30.938L969.852 75.376C971.757 76.67 972.249 79.261 970.958 81.163C969.666 83.06 967.072 83.561 965.172 82.266L899.816 37.829C871.435 18.53 838.379 8.33099 804.228 8.33099C738.777 8.33099 678.345 46.478 650.271 105.52L619.263 170.72C618.549 172.218 617.056 173.096 615.496 173.096Z" fill="#35414C"/>
<path d="M219.529 1672.17H178.75C117.113 1672.17 60.6621 1641.06 27.7351 1588.96C-5.18187 1536.84 -9.03387 1472.5 17.4381 1416.84L52.9911 1342.08C53.9771 1340 56.4511 1339.11 58.5421 1340.11C60.6191 1341.09 61.5001 1343.58 60.5141 1345.66L24.9601 1420.42C-0.276865 1473.48 3.39414 1534.83 34.7791 1584.5C66.1701 1634.18 119.989 1663.84 178.75 1663.84H219.529C221.831 1663.84 223.692 1665.71 223.692 1668.01C223.692 1670.31 221.831 1672.17 219.529 1672.17Z" fill="#35414C"/>
<path d="M1883.2 1593.9C1882.42 1593.9 1881.62 1593.68 1880.92 1593.22C1879 1591.96 1878.47 1589.38 1879.73 1587.45C1911.32 1539.38 1916.55 1479.15 1893.72 1426.36L1807.54 1227C1806.62 1224.89 1807.59 1222.44 1809.71 1221.52C1811.79 1220.62 1814.27 1221.58 1815.18 1223.69L1901.37 1423.05C1925.31 1478.43 1919.82 1541.6 1886.69 1592.02C1885.89 1593.24 1884.56 1593.9 1883.2 1593.9Z" fill="#35414C"/>
<path fill-rule="evenodd" clip-rule="evenodd" d="M497.828 1604.31H178.749C97.3663 1604.31 43.7733 1519.48 78.7253 1445.98L704.035 131.087C733.199 69.7599 810.18 48.8789 866.337 87.0629L1675.37 637.166C1722.52 669.223 1737.63 731.834 1710.29 781.866L1646.86 897.964C1630.5 927.902 1628.85 963.709 1642.39 995.024L1839.08 1449.98C1870.7 1523.12 1817.06 1604.72 1737.38 1604.69L497.828 1604.31Z" fill="#E2FDFF"/>
<path d="M1768.86 670.589H1150.79C1121.75 670.589 1098.2 647.047 1098.2 618.008V501.333C1098.2 472.293 1121.75 448.752 1150.79 448.752H1768.86C1797.9 448.752 1821.44 472.293 1821.44 501.333V618.008C1821.44 647.047 1797.9 670.589 1768.86 670.589Z" fill="white"/>
<path d="M1612.2 674.753H1184.51C1182.21 674.753 1180.35 672.887 1180.35 670.588C1180.35 668.288 1182.21 666.422 1184.51 666.422H1612.2C1614.5 666.422 1616.36 668.288 1616.36 670.588C1616.36 672.887 1614.5 674.753 1612.2 674.753Z" fill="#34354C"/>
<path d="M1098.2 505.498C1095.9 505.498 1094.04 503.632 1094.04 501.333C1094.04 470.045 1119.49 444.588 1150.78 444.588H1612.2C1614.5 444.588 1616.36 446.454 1616.36 448.753C1616.36 451.052 1614.5 452.919 1612.2 452.919H1150.78C1124.09 452.919 1102.37 474.636 1102.37 501.333C1102.37 503.631 1100.51 505.498 1098.2 505.498Z" fill="#34354C"/>
<path d="M619.499 1134.91H174.596C127.199 1134.91 88.7773 1096.49 88.7773 1049.09V446.301C88.7773 398.904 127.2 360.482 174.596 360.482H619.499C666.896 360.482 705.318 398.904 705.318 446.301V1049.09C705.318 1096.49 666.896 1134.91 619.499 1134.91Z" fill="white"/>
<path d="M426.53 1139.08H174.596C124.979 1139.08 84.6113 1098.71 84.6113 1049.09V446.303C84.6113 396.686 124.978 356.318 174.596 356.318H619.501C669.118 356.318 709.481 396.686 709.481 446.303V891.067C709.481 893.366 707.62 895.233 705.318 895.233C703.016 895.233 701.155 893.367 701.155 891.067V446.303C701.155 401.279 664.525 364.649 619.501 364.649H174.596C129.572 364.649 92.9383 401.279 92.9383 446.303V1049.09C92.9383 1094.11 129.573 1130.75 174.596 1130.75H426.53C428.832 1130.75 430.693 1132.61 430.693 1134.91C430.693 1137.21 428.832 1139.08 426.53 1139.08Z" fill="#34354C"/>
<path d="M824.007 923.276H622.322C590.651 923.276 561.881 941.724 548.666 970.505L440.534 1206L697.442 1289.04L736.017 1209.21L737.803 1538.33L1210.6 1545.01V1199.03L1358.54 1065.97L1271.79 956.079C1256.51 936.723 1233.25 925.376 1208.59 925.249L824.007 923.276Z" fill="#00B4F5"/>
<path d="M897.521 764.724C897.521 764.724 795.538 667.837 877.802 616.357C897.516 538.709 965.662 538.127 1004 556.902C1104.46 531.136 1215.21 583.03 1120.52 706.369C1025.82 829.707 897.521 764.724 897.521 764.724Z" fill="#35414C"/>
<path d="M1098.95 924.405L1064.35 921.752C1047.97 921.293 1048.51 909.371 1050.74 898.608L1058.91 860.825C1058.91 860.825 1103.57 876.545 1126.58 833.741C1149.58 790.938 1123.53 670.188 1123.53 670.188C1061.75 678.346 988.651 682.249 939.401 653.185C973.575 687.949 990.715 741.303 932.909 753.693C876.672 726.474 862.775 803.611 916.492 812.195C916.07 812.277 909.879 843.542 904.551 860.398C898.03 881.032 892.8 905.01 868.991 911.726C856.689 915.196 819.457 924.405 819.457 924.405C802.833 994.055 872.292 1086.47 960.537 1086.47C1072.18 1086.47 1128.77 994.21 1098.95 924.405Z" fill="#F4CDCB"/>
<path d="M1098.95 924.405L1064.35 921.752C1047.97 921.293 1048.51 909.371 1050.74 898.608L1058.91 860.825C1058.91 860.825 1103.57 876.545 1126.58 833.741C1149.58 790.938 1123.53 670.188 1123.53 670.188C1061.75 678.346 988.651 682.249 939.401 653.185C973.575 687.949 990.715 741.303 932.909 753.693C876.672 726.474 862.775 803.611 916.492 812.195C916.07 812.277 909.879 843.542 904.551 860.398C898.03 881.032 892.8 905.01 868.991 911.726C856.689 915.196 819.457 924.405 819.457 924.405C802.833 994.055 872.292 1086.47 960.537 1086.47C1072.18 1086.47 1128.77 994.21 1098.95 924.405Z" fill="#F4CDCB"/>
<path d="M1118.01 781.316C1117.02 781.316 1116.02 780.964 1115.22 780.249C1113.52 778.713 1113.37 776.079 1114.91 774.368C1114.97 774.301 1121 767.581 1127.37 759.769C1129.67 756.938 1128.9 753.132 1126.88 751.235C1126.15 750.486 1125.43 750.038 1124.52 749.704C1119.66 748.014 1115.45 745.514 1112.06 742.294C1103.27 734.107 1100.08 721.285 1103.77 708.86C1107.35 696.811 1116.38 688.136 1127.34 686.219C1129.6 685.82 1131.76 687.341 1132.16 689.604C1132.55 691.87 1131.04 694.028 1128.77 694.425C1120.95 695.791 1114.43 702.232 1111.76 711.231C1109.58 718.579 1110.01 729.001 1117.76 736.229C1120.32 738.653 1123.52 740.538 1127.32 741.859C1129.5 742.656 1131.3 743.811 1132.73 745.314C1138.11 750.336 1138.67 759.066 1133.84 765.029C1127.32 773.008 1121.17 779.868 1121.11 779.935C1120.29 780.85 1119.15 781.316 1118.01 781.316Z" fill="#35414C"/>
<path d="M1006.37 726.124C1005.85 726.124 1005.32 726.026 1004.8 725.818C1002.67 724.95 1001.65 722.521 1002.51 720.389C1009.71 702.708 1033.09 688.922 1059.78 696.476C1061.99 697.103 1063.28 699.404 1062.66 701.618C1062.03 703.828 1059.73 705.121 1057.52 704.491C1033.02 697.564 1015.13 711.458 1010.23 723.529C1009.57 725.146 1008.01 726.124 1006.37 726.124Z" fill="#35414C"/>
<path d="M1053.22 754.649C1053.54 761.678 1049.58 767.561 1044.4 767.79C1039.21 768.019 1034.76 762.508 1034.45 755.479C1034.14 748.451 1038.09 742.568 1043.27 742.338C1048.46 742.109 1052.91 747.621 1053.22 754.649Z" fill="#35414C"/>
<path d="M1114.82 738.098C1114.82 738.49 1114.87 738.882 1114.92 739.274C1117.76 741.969 1121.44 744.223 1125.95 745.791C1127.42 746.33 1128.69 747.114 1129.72 748.192C1132.22 745.791 1133.79 741.773 1133.59 737.265C1133.3 730.209 1128.84 724.721 1123.64 724.966C1118.45 725.162 1114.53 731.042 1114.82 738.098Z" fill="#35414C"/>
<path d="M1076.16 869.627C1061.14 869.627 1043.74 865.27 1024.03 856.546C1021.93 855.616 1020.98 853.154 1021.91 851.051C1022.84 848.943 1025.31 848 1027.4 848.929C1072.29 868.799 1102.49 864.914 1119.74 837.047C1120.95 835.095 1123.5 834.48 1125.47 835.698C1127.43 836.908 1128.03 839.476 1126.82 841.43C1115.19 860.219 1098.24 869.627 1076.16 869.627Z" fill="#35414C"/>
<path d="M965.76 1089.06C903.323 1089.07 866.741 1060.57 846.294 1034.36C816.348 995.971 809.496 946.909 820.172 921.653C820.665 920.493 821.655 919.617 822.866 919.27L868.172 906.329C879.761 903.018 888.667 894.125 891.988 882.537L912.488 811.047C913.124 808.836 915.426 807.554 917.641 808.193C919.852 808.827 921.129 811.134 920.498 813.344L899.998 884.834C895.873 899.204 884.834 910.234 870.459 914.339L827.129 926.716C818.693 949.854 825.9 994.67 852.864 1029.24C875.589 1058.37 919.631 1090.47 1000.5 1077.92C1002.78 1077.58 1004.9 1079.13 1005.25 1081.4C1005.61 1083.67 1004.05 1085.8 1001.77 1086.15C988.91 1088.15 976.919 1089.06 965.76 1089.06Z" fill="#35414C"/>
<path d="M1095.73 820.392C1089.03 820.392 1082.85 817.973 1078.64 813.578C1077.05 811.915 1077.11 809.281 1078.77 807.69C1080.44 806.104 1083.07 806.154 1084.66 807.817C1087.89 811.181 1093.17 812.671 1098.77 811.827C1104.37 810.975 1109.06 807.987 1111.02 804.03C1112.05 801.967 1114.55 801.12 1116.61 802.152C1118.67 803.176 1119.51 805.674 1118.49 807.734C1115.29 814.18 1108.39 818.788 1100.03 820.063C1098.58 820.282 1097.14 820.392 1095.73 820.392Z" fill="#35414C"/>
<path d="M1099.95 1004.89C1099.22 1004.89 1098.48 1004.7 1097.81 1004.3C1095.83 1003.11 1095.19 1000.55 1096.38 998.582C1110.31 975.405 1099.21 938.097 1095.91 928.312L1070.08 925.98C1062.38 925.281 1055.38 921.271 1050.9 914.978C1046.41 908.686 1044.9 900.771 1046.74 893.268L1054.28 862.7C1054.83 860.465 1057.07 859.092 1059.32 859.652C1061.55 860.202 1062.91 862.459 1062.36 864.691L1054.83 895.259C1053.56 900.403 1054.6 905.827 1057.68 910.141C1060.75 914.457 1065.55 917.206 1070.83 917.683L1099.32 920.257C1100.9 920.401 1102.26 921.427 1102.83 922.906C1103.61 924.923 1121.68 972.65 1103.52 1002.87C1102.74 1004.17 1101.36 1004.89 1099.95 1004.89Z" fill="#35414C"/>
<path d="M1514.19 1729.87L1386.94 1801.5C1376.65 1807.29 1363.02 1807.44 1352.54 1801.89L1215.62 1729.25C1115.08 1675.91 1054.58 1585.57 1054.58 1488.75V1047.24C1054.58 1033.67 1068.27 1022.66 1085.16 1022.66H1636.46C1653.35 1022.66 1667.04 1033.66 1667.04 1047.24V1493.84C1667.04 1587.84 1609.99 1675.94 1514.19 1729.87Z" fill="#9CF4F3"/>
<path d="M1369.39 1810.13C1362.86 1810.13 1356.33 1808.61 1350.59 1805.57L1213.67 1732.93C1111.44 1678.7 1050.42 1587.42 1050.42 1488.75V1047.24C1050.42 1031.39 1066 1018.5 1085.16 1018.5H1636.46C1655.62 1018.5 1671.2 1031.39 1671.2 1047.24V1493.84C1671.2 1589.28 1613.27 1678.87 1516.23 1733.5L1388.98 1805.13C1383.06 1808.46 1376.23 1810.13 1369.39 1810.13ZM1085.16 1026.83C1070.6 1026.83 1058.74 1035.99 1058.74 1047.24V1488.75C1058.74 1584.28 1118.12 1672.82 1217.57 1725.57L1354.49 1798.21C1363.66 1803.08 1375.89 1802.94 1384.89 1797.87L1512.14 1726.24C1606.52 1673.11 1662.87 1586.23 1662.87 1493.84V1047.24C1662.87 1035.98 1651.02 1026.83 1636.46 1026.83L1085.16 1026.83Z" fill="#34354C"/>
<path d="M1367.38 1457.76C1314.08 1457.76 1270.72 1414.39 1270.72 1361.09C1270.72 1307.79 1314.08 1264.43 1367.38 1264.43C1381.42 1264.43 1394.96 1267.38 1407.63 1273.18C1409.72 1274.14 1410.64 1276.61 1409.67 1278.7C1408.72 1280.79 1406.25 1281.72 1404.15 1280.75C1392.58 1275.45 1380.21 1272.76 1367.38 1272.76C1318.68 1272.76 1279.05 1312.39 1279.05 1361.09C1279.05 1409.8 1318.68 1449.42 1367.38 1449.42C1416.09 1449.42 1455.72 1409.8 1455.72 1361.09C1455.72 1358.79 1457.58 1356.93 1459.88 1356.93C1462.18 1356.93 1464.04 1358.79 1464.04 1361.09C1464.04 1414.39 1420.68 1457.76 1367.38 1457.76Z" fill="#34354C"/>
<path d="M1374.75 1410.01C1368.48 1410.01 1362.21 1407.62 1357.43 1402.83L1313.01 1358.42C1303.88 1349.29 1302.31 1334.4 1310.61 1324.5C1319.97 1313.33 1336.67 1312.78 1346.75 1322.86L1374.58 1350.69C1374.67 1350.79 1374.83 1350.79 1374.92 1350.69L1454.41 1271.21C1464.48 1261.12 1481.19 1261.67 1490.55 1272.84C1498.84 1282.74 1497.28 1297.63 1488.14 1306.76L1392.07 1402.83C1387.29 1407.62 1381.02 1410.01 1374.75 1410.01Z" fill="white"/>
<path d="M1374.75 1414.18C1367.09 1414.18 1359.89 1411.19 1354.48 1405.78L1310.07 1361.37C1299.15 1350.45 1297.99 1333.08 1307.42 1321.82C1312.67 1315.56 1320.04 1311.91 1328.17 1311.55C1336.17 1311.23 1344.03 1314.25 1349.7 1319.92L1374.75 1344.97L1451.46 1268.26C1457.12 1262.59 1464.92 1259.57 1472.99 1259.9C1481.12 1260.25 1488.49 1263.9 1493.74 1270.17C1503.17 1281.42 1502.01 1298.79 1491.09 1309.71L1395.01 1405.78C1389.6 1411.19 1382.4 1414.18 1374.75 1414.18ZM1329.42 1319.86C1329.12 1319.86 1328.83 1319.86 1328.53 1319.88C1322.77 1320.13 1317.53 1322.72 1313.8 1327.17C1307.12 1335.15 1308.07 1347.58 1315.96 1355.48L1360.37 1399.89C1364.21 1403.73 1369.31 1405.84 1374.75 1405.84C1380.18 1405.84 1385.28 1403.73 1389.12 1399.89L1485.2 1303.82C1493.09 1295.92 1494.04 1283.49 1487.36 1275.52C1483.62 1271.06 1478.39 1268.47 1472.63 1268.22C1466.87 1267.96 1461.37 1270.13 1457.35 1274.15L1377.86 1353.64C1377.08 1354.42 1375.85 1354.93 1374.74 1354.93C1374.72 1354.93 1374.71 1354.93 1374.69 1354.93C1373.57 1354.91 1372.33 1354.37 1371.56 1353.56L1343.8 1325.81C1340 1322 1334.8 1319.86 1329.42 1319.86Z" fill="#34354C"/>
<path d="M440.533 1206L351.264 1413.39C312.39 1503.7 378.619 1604.31 476.941 1604.31H998.651C998.651 1604.31 1200.22 1589.08 1206.8 1586.95C1227.45 1580.28 1224.27 1553.62 1198.42 1549.05C1175.78 1545.5 1127.61 1542.4 1127.61 1542.4C1127.61 1542.4 1222.09 1521.09 1230.33 1520.36C1244.19 1519.14 1258.2 1477.96 1239.39 1473.4C1220.58 1468.84 1132.1 1477.9 1132.1 1477.9C1146.42 1473.61 1248.05 1455.21 1260.09 1449.7C1272.13 1444.19 1270.94 1406.69 1241.54 1405.15C1212.14 1403.62 1134.94 1417.05 1134.94 1417.05C1134.94 1417.05 1206.84 1387.78 1213.58 1383.47C1220.32 1379.15 1220.46 1344.51 1203.48 1343.59C1186.51 1342.67 1054.58 1359.21 1054.58 1359.21V1311.7L976.53 1369.97H654.758L697.441 1289.04L440.533 1206Z" fill="#F4CDCB"/>
<path d="M1310.41 1009.17C1309.18 1009.17 1307.96 1008.63 1307.14 1007.59L1268.52 958.662C1253.94 940.196 1232.09 929.534 1208.56 929.415L1130.5 929.013C1128.2 929.001 1126.34 927.125 1126.36 924.826C1126.37 922.534 1128.23 920.682 1130.52 920.682C1130.53 920.682 1130.54 920.682 1130.54 920.682L1208.6 921.084C1234.68 921.218 1258.9 933.033 1275.05 953.499L1313.68 1002.42C1315.1 1004.23 1314.8 1006.85 1312.99 1008.27C1312.23 1008.88 1311.31 1009.17 1310.41 1009.17Z" fill="#35414C"/>
<path d="M737.8 1349.36C735.498 1349.36 733.637 1347.49 733.637 1345.19V1096.11C733.637 1093.81 735.498 1091.95 737.8 1091.95C740.102 1091.95 741.963 1093.81 741.963 1096.11V1345.19C741.963 1347.49 740.101 1349.36 737.8 1349.36Z" fill="#35414C"/>
<path d="M697.441 1293.21C697.015 1293.21 696.585 1293.14 696.159 1293L439.249 1209.96C438.12 1209.6 437.196 1208.76 436.718 1207.67C436.239 1206.59 436.249 1205.34 436.746 1204.26L544.881 968.768C558.734 938.602 589.129 919.11 622.324 919.11H788.847C791.149 919.11 793.01 920.976 793.01 923.276C793.01 925.576 791.149 927.442 788.847 927.442H622.324C592.374 927.442 564.95 945.028 552.451 972.243L446.273 1203.48L695.326 1283.98L735.555 1204.13C736.593 1202.08 739.081 1201.25 741.149 1202.28C743.202 1203.32 744.03 1205.82 742.991 1207.87L701.159 1290.91C700.437 1292.35 698.978 1293.21 697.441 1293.21Z" fill="#35414C"/>
<path d="M665.018 1354.21C664.353 1354.21 663.673 1354.05 663.046 1353.71C661.022 1352.62 660.266 1350.1 661.357 1348.07L683.608 1306.8C684.694 1304.77 687.221 1304.01 689.25 1305.11C691.274 1306.2 692.03 1308.72 690.939 1310.75L668.688 1352.03C667.937 1353.42 666.501 1354.21 665.018 1354.21Z" fill="#35414C"/>
<path d="M476.941 1608.47C429.363 1608.47 385.334 1584.75 359.174 1545C333.013 1505.26 328.625 1455.44 347.44 1411.74L436.707 1204.35C437.616 1202.24 440.066 1201.26 442.176 1202.17C444.291 1203.08 445.267 1205.53 444.353 1207.64L355.086 1415.03C337.386 1456.15 341.515 1503.03 366.13 1540.42C390.745 1577.82 432.17 1600.14 476.94 1600.14H998.651C1006.23 1599.53 1191.93 1584.88 1198.77 1584.4C1209.77 1583.63 1217.11 1576.29 1217.85 1569.64C1218.58 1563.09 1213.23 1557.59 1203.17 1554.57C1180.57 1547.77 1105.3 1544.16 1104.54 1544.12C1102.41 1544.02 1100.69 1542.32 1100.58 1540.18C1100.47 1538.05 1101.99 1536.17 1104.1 1535.85C1104.1 1535.85 1221.5 1517.56 1229.66 1516.25C1239.96 1514.59 1244.91 1505.09 1245.25 1496.41C1245.5 1490.18 1243.21 1482.27 1235.96 1480.51C1221.08 1476.9 1132.33 1483.63 1099.39 1486.53C1097.29 1486.74 1095.34 1485.27 1094.93 1483.17C1094.53 1481.07 1095.79 1479.01 1097.83 1478.39C1103.62 1476.66 1127.4 1471.59 1154.94 1465.71C1194.31 1457.32 1248.22 1445.82 1255.11 1442.66C1258.97 1440.9 1262.12 1432.84 1260.57 1424.7C1259.53 1419.27 1255.65 1410.06 1241.32 1409.31C1212.69 1407.82 1093.17 1428.09 1091.96 1428.29C1089.83 1428.67 1087.67 1427.25 1087.2 1425.08C1086.72 1422.9 1088.04 1420.74 1090.19 1420.16C1134.2 1408.39 1206.56 1386.52 1213.37 1378C1214.65 1376.41 1215.32 1367.76 1211.62 1359.5C1209.71 1355.23 1206.16 1350.08 1200.06 1349.75C1186.92 1349.04 1099.63 1362.76 1055.26 1370.12C1054.05 1370.33 1052.82 1369.98 1051.89 1369.19C1050.95 1368.4 1050.42 1367.23 1050.42 1366.01V1320.01L979.018 1373.3C978.295 1373.84 977.424 1374.13 976.525 1374.13H565.74C563.439 1374.13 561.577 1372.27 561.577 1369.97C561.577 1367.67 563.439 1365.8 565.74 1365.8H975.144L1052.09 1308.36C1053.36 1307.42 1055.05 1307.27 1056.45 1307.98C1057.86 1308.68 1058.75 1310.12 1058.75 1311.7V1361.1C1082.71 1357.17 1184.84 1340.52 1200.52 1341.43C1208.54 1341.87 1215.18 1347.07 1219.23 1356.09C1223.08 1364.7 1224.43 1377.52 1219.88 1383.21C1214.4 1390.06 1185.37 1400.55 1156.03 1409.78C1189.77 1404.87 1226.83 1400.23 1241.75 1400.99C1256.15 1401.74 1266.24 1410.02 1268.75 1423.14C1270.96 1434.71 1266.49 1446.62 1258.58 1450.24C1251.44 1453.51 1210.22 1462.44 1157.02 1473.79C1190.45 1471.61 1227.7 1469.94 1237.92 1472.42C1247.76 1474.8 1254.06 1484.58 1253.58 1496.73C1253.12 1508.42 1245.86 1522.08 1230.99 1524.47C1225.89 1525.29 1178.09 1532.75 1142.97 1538.22C1165.87 1540.01 1192.95 1542.79 1205.58 1546.59C1219.65 1550.82 1227.33 1559.79 1226.13 1570.57C1224.83 1582.21 1213.32 1591.73 1199.36 1592.71C1192.55 1593.18 1000.92 1608.31 998.978 1608.46L476.941 1608.47Z" fill="#35414C"/>
<path d="M1665.37 1247.25C1630.9 1248.52 1533.29 1255.9 1528.58 1257.4C1507.97 1263.93 1517.07 1299.57 1529.71 1305.58C1542.36 1311.59 1631.88 1309.87 1631.88 1309.87C1631.88 1309.87 1533.45 1314.44 1521.75 1319.97C1510.06 1325.51 1515.23 1362.87 1534.94 1366.43C1554.65 1369.99 1637.4 1374.79 1637.4 1374.79C1637.4 1374.79 1550.21 1384.43 1541.35 1387.04C1530.39 1390.27 1533.58 1422.87 1549.41 1426.38C1563.35 1429.47 1639.44 1443.8 1639.44 1443.8C1639.44 1443.8 1566.7 1435.81 1557.89 1439.41C1545.37 1444.52 1552.84 1475.77 1566.49 1482.02C1580.15 1488.28 1626.73 1498.59 1649.04 1503.71C1663.64 1507.06 1719.06 1531.26 1732.74 1480.1C1746.42 1428.93 1772.37 1291.69 1726 1251.06C1716.25 1242.51 1680.78 1246.68 1665.37 1247.25Z" fill="#F4CDCB"/>
<path d="M1687.87 1514.87C1675.22 1514.87 1663.72 1511.83 1654.87 1509.49C1652.42 1508.84 1650.15 1508.24 1648.1 1507.77C1627.24 1502.98 1579.93 1491.29 1565.08 1485.95C1550.9 1480.84 1545.61 1467.04 1545.39 1456.78C1545.18 1446.68 1549.47 1438.36 1556.31 1435.56C1558.45 1434.68 1563.88 1434.15 1571.11 1433.86C1560.64 1432.47 1552.22 1431.24 1548.54 1430.46C1533.13 1427.18 1527.19 1414.44 1526.77 1403.61C1526.37 1393.15 1530.83 1384.44 1537.62 1382.43C1542.22 1381.08 1570.88 1378.03 1599.31 1375.23C1572.05 1373.84 1543.78 1372.1 1534.26 1370.54C1521.38 1368.43 1512.46 1358.4 1510.4 1343.71C1508.89 1333.01 1511.7 1320.13 1519.97 1316.21C1523.59 1314.5 1536 1313.07 1552.09 1311.9C1540.66 1311.19 1531.98 1310.43 1528.72 1309.62C1516.82 1306.7 1511.33 1293.37 1511.16 1281.46C1511 1269.76 1515.98 1256.55 1527.47 1253.38C1533.37 1251.76 1633.79 1244.25 1665.21 1243.09C1667.29 1243.01 1669.71 1242.89 1672.37 1242.76C1696.38 1241.57 1718.73 1241.05 1728.35 1247.63C1756.09 1266.59 1760.96 1332.99 1756.27 1388.82C1751.84 1441.42 1737.71 1498.96 1716.12 1508.89C1706.48 1513.33 1696.88 1514.87 1687.87 1514.87ZM1588.16 1441.9C1572.94 1441.9 1561.86 1442.31 1559.46 1443.27C1555.89 1444.73 1553.58 1450.09 1553.72 1456.6C1553.88 1464.22 1557.7 1474.43 1567.9 1478.11C1581.76 1483.1 1627.98 1494.6 1649.97 1499.65C1652.1 1500.14 1654.45 1500.76 1657 1501.43C1671.85 1505.37 1692.18 1510.74 1712.64 1501.32C1727.94 1494.28 1743.13 1445.61 1747.96 1388.12C1753.62 1320.91 1744.07 1268.46 1723.65 1254.5C1715.55 1248.97 1687.72 1250.34 1672.78 1251.08C1670.08 1251.21 1667.63 1251.33 1665.52 1251.41C1630.3 1252.72 1535.26 1260.14 1529.63 1261.42C1522.48 1263.4 1519.37 1272.85 1519.49 1281.34C1519.61 1290.05 1523.13 1299.67 1530.71 1301.54C1541.5 1304.19 1627.52 1306.8 1659.75 1307.58C1662.01 1307.64 1663.82 1309.49 1663.81 1311.75C1663.81 1314.02 1662 1315.86 1659.74 1315.91C1611.29 1316.94 1531.47 1319.98 1523.53 1323.74C1520.13 1325.35 1517.35 1333.3 1518.65 1342.55C1519.38 1347.78 1522.5 1360.17 1535.61 1362.32C1554.89 1365.48 1658.45 1369.57 1659.49 1369.61C1661.69 1369.69 1663.44 1371.47 1663.49 1373.66C1663.55 1375.86 1661.89 1377.72 1659.7 1377.92C1614.98 1381.94 1546.18 1388.59 1539.98 1390.42C1537.41 1391.18 1534.83 1396.53 1535.1 1403.29C1535.24 1407.03 1536.76 1419.43 1550.27 1422.31C1563.88 1425.2 1648.65 1434.87 1649.5 1434.96C1651.73 1435.22 1653.36 1437.19 1653.18 1439.42C1653.01 1441.66 1651.16 1443.33 1648.86 1443.26C1627.71 1442.42 1605.31 1441.9 1588.16 1441.9Z" fill="#35414C"/>
<path d="M453.034 787.804H323.141C302.598 787.804 288.18 767.556 294.899 748.143L311.231 700.955C322.568 668.197 353.423 646.225 388.088 646.225C422.752 646.225 453.609 668.197 464.946 700.955L481.278 748.143C487.995 767.556 473.577 787.804 453.034 787.804Z" fill="#00B4F5"/>
<path d="M453.035 791.968H323.142C311.988 791.968 301.877 786.757 295.408 777.67C288.934 768.583 287.316 757.323 290.963 746.782L307.295 699.593C319.205 665.18 351.672 642.059 388.087 642.059C424.507 642.059 456.974 665.181 468.885 699.593L485.217 746.782C488.864 757.323 487.246 768.583 480.772 777.67C474.3 786.757 464.189 791.968 453.035 791.968ZM388.086 650.39C355.217 650.39 325.917 671.258 315.17 702.316L298.838 749.504C296.082 757.469 297.302 765.973 302.192 772.836C307.077 779.701 314.715 783.636 323.141 783.636H453.034C461.461 783.636 469.098 779.7 473.984 772.836C478.875 765.972 480.095 757.469 477.338 749.504L461.006 702.316C450.259 671.258 420.955 650.39 388.086 650.39Z" fill="#35414C"/>
<path d="M349.644 587.949C349.644 566.717 366.856 549.505 388.089 549.505C409.321 549.505 426.533 566.717 426.533 587.949C426.533 609.181 409.321 626.393 388.089 626.393C366.857 626.393 349.644 609.181 349.644 587.949Z" fill="#00B4F5"/>
<path d="M388.086 630.56C364.591 630.56 345.479 611.443 345.479 587.948C345.479 564.453 364.591 545.339 388.086 545.339C411.581 545.339 430.693 564.453 430.693 587.948C430.693 611.443 411.581 630.56 388.086 630.56ZM388.086 553.67C369.185 553.67 353.807 569.047 353.807 587.948C353.807 606.852 369.185 622.229 388.086 622.229C406.988 622.229 422.367 606.852 422.367 587.948C422.367 569.047 406.987 553.67 388.086 553.67Z" fill="#35414C"/>
<path d="M478.209 677.092C519.033 677.092 552.128 710.187 552.128 751.011C552.128 791.835 519.034 824.929 478.211 824.929H478.209C437.385 824.929 404.292 791.835 404.292 751.011C404.292 710.187 437.385 677.092 478.209 677.092Z" fill="#9CF4F3"/>
<path d="M478.21 829.096C435.153 829.096 400.126 794.066 400.126 751.012C400.126 707.958 435.153 672.928 478.21 672.928C521.262 672.928 556.29 707.958 556.29 751.012C556.289 794.066 521.262 829.096 478.21 829.096ZM478.21 681.259C439.747 681.259 408.452 712.549 408.452 751.012C408.452 789.476 439.747 820.765 478.21 820.765C516.673 820.765 547.963 789.475 547.963 751.012C547.963 712.549 516.673 681.259 478.21 681.259Z" fill="#34354C"/>
<path d="M484.1 774.689C483.033 774.689 481.971 774.282 481.157 773.468L444.938 737.252C443.311 735.625 443.311 732.988 444.938 731.362C446.555 729.735 449.197 729.735 450.824 731.362L484.1 764.633L558.658 690.078C560.275 688.451 562.926 688.451 564.544 690.078C566.171 691.705 566.171 694.342 564.544 695.968L487.044 773.468C486.234 774.282 485.167 774.689 484.1 774.689Z" fill="#34354C"/>
<path d="M555.059 465.974C540.971 465.974 529.511 454.514 529.511 440.426C529.511 426.338 540.971 414.875 555.059 414.875C569.147 414.875 580.607 426.338 580.607 440.426C580.607 454.514 569.147 465.974 555.059 465.974ZM555.059 423.207C545.565 423.207 537.837 430.93 537.837 440.427C537.837 449.921 545.565 457.644 555.059 457.644C564.553 457.644 572.281 449.921 572.281 440.427C572.281 430.93 564.553 423.207 555.059 423.207Z" fill="#35414C"/>
<path d="M615.501 465.974C601.414 465.974 589.958 454.514 589.958 440.426C589.958 426.338 601.414 414.875 615.501 414.875C629.589 414.875 641.049 426.338 641.049 440.426C641.049 454.514 629.588 465.974 615.501 465.974ZM615.501 423.207C606.007 423.207 598.284 430.93 598.284 440.427C598.284 449.921 606.007 457.644 615.501 457.644C624.995 457.644 632.723 449.921 632.723 440.427C632.722 430.93 624.994 423.207 615.501 423.207Z" fill="#35414C"/>
<path d="M1771.31 670.589H1612.2V448.752H1771.31C1799 448.752 1821.44 471.196 1821.44 498.883V620.458C1821.44 648.144 1799 670.589 1771.31 670.589Z" fill="#00B4F5"/>
<path d="M1771.31 674.753H1612.2C1609.89 674.753 1608.03 672.887 1608.03 670.588V448.753C1608.03 446.454 1609.9 444.588 1612.2 444.588H1771.31C1801.25 444.588 1825.6 468.944 1825.6 498.883V620.459C1825.6 650.397 1801.25 674.753 1771.31 674.753ZM1616.36 666.422H1771.31C1796.66 666.422 1817.28 645.803 1817.28 620.458V498.882C1817.28 473.537 1796.66 452.918 1771.31 452.918H1616.36V666.422Z" fill="#34354C"/>
<path d="M504.609 998.35H242.78C240.478 998.35 238.616 996.484 238.616 994.184V891.066C238.616 888.766 240.478 886.901 242.78 886.901H551.312C553.614 886.901 555.475 888.767 555.475 891.066V916.32C555.475 918.619 553.613 920.486 551.312 920.486C549.01 920.486 547.149 918.62 547.149 916.32V895.232H246.943V990.019H504.609C506.911 990.019 508.772 991.885 508.772 994.185C508.772 996.485 506.911 998.35 504.609 998.35Z" fill="#34354C"/>
<path d="M1186.12 565.791C1186.12 552.786 1196.66 542.243 1209.66 542.243C1222.67 542.243 1233.21 552.786 1233.21 565.791C1233.21 578.797 1222.67 589.339 1209.66 589.339C1196.66 589.339 1186.12 578.796 1186.12 565.791Z" fill="#9CF4F3"/>
<path d="M1209.66 593.504C1194.39 593.504 1181.95 581.072 1181.95 565.791C1181.95 550.51 1194.39 538.078 1209.66 538.078C1224.94 538.078 1237.38 550.51 1237.38 565.791C1237.38 581.072 1224.94 593.504 1209.66 593.504ZM1209.66 546.408C1198.97 546.408 1190.28 555.103 1190.28 565.79C1190.28 576.478 1198.97 585.172 1209.66 585.172C1220.35 585.172 1229.05 576.477 1229.05 565.79C1229.05 555.103 1220.35 546.408 1209.66 546.408Z" fill="#34354C"/>
<path d="M1284.12 565.791C1284.12 552.786 1294.66 542.243 1307.66 542.243C1320.67 542.243 1331.21 552.786 1331.21 565.791C1331.21 578.797 1320.67 589.339 1307.66 589.339C1294.66 589.339 1284.12 578.796 1284.12 565.791Z" fill="#9CF4F3"/>
<path d="M1307.66 593.504C1292.39 593.504 1279.95 581.072 1279.95 565.791C1279.95 550.51 1292.39 538.078 1307.66 538.078C1322.94 538.078 1335.38 550.51 1335.38 565.791C1335.38 581.072 1322.94 593.504 1307.66 593.504ZM1307.66 546.408C1296.97 546.408 1288.28 555.103 1288.28 565.79C1288.28 576.478 1296.97 585.172 1307.66 585.172C1318.35 585.172 1327.05 576.477 1327.05 565.79C1327.05 555.103 1318.35 546.408 1307.66 546.408Z" fill="#34354C"/>
<path d="M1382.12 565.791C1382.12 552.786 1392.66 542.243 1405.66 542.243C1418.67 542.243 1429.21 552.786 1429.21 565.791C1429.21 578.797 1418.67 589.339 1405.66 589.339C1392.66 589.339 1382.12 578.796 1382.12 565.791Z" fill="#9CF4F3"/>
<path d="M1405.66 593.504C1390.39 593.504 1377.95 581.072 1377.95 565.791C1377.95 550.51 1390.39 538.078 1405.66 538.078C1420.94 538.078 1433.38 550.51 1433.38 565.791C1433.38 581.072 1420.94 593.504 1405.66 593.504ZM1405.66 546.408C1394.97 546.408 1386.28 555.103 1386.28 565.79C1386.28 576.478 1394.97 585.172 1405.66 585.172C1416.35 585.172 1425.05 576.477 1425.05 565.79C1425.05 555.103 1416.35 546.408 1405.66 546.408Z" fill="#34354C"/>
<path d="M1480.12 565.791C1480.12 552.786 1490.66 542.243 1503.66 542.243C1516.67 542.243 1527.21 552.786 1527.21 565.791C1527.21 578.797 1516.67 589.339 1503.66 589.339C1490.66 589.339 1480.12 578.796 1480.12 565.791Z" fill="#9CF4F3"/>
<path d="M1503.66 593.504C1488.39 593.504 1475.95 581.072 1475.95 565.791C1475.95 550.51 1488.39 538.078 1503.66 538.078C1518.94 538.078 1531.38 550.51 1531.38 565.791C1531.38 581.072 1518.94 593.504 1503.66 593.504ZM1503.66 546.408C1492.97 546.408 1484.28 555.103 1484.28 565.79C1484.28 576.478 1492.97 585.172 1503.66 585.172C1514.35 585.172 1523.05 576.477 1523.05 565.79C1523.05 555.103 1514.35 546.408 1503.66 546.408Z" fill="#34354C"/>
<path d="M1716.82 556.686C1715.76 556.686 1714.7 556.287 1713.9 555.485C1712.25 553.87 1712.24 551.233 1713.85 549.595L1764.56 498.21C1766.12 496.633 1768.64 496.554 1770.29 498.023L1783.25 509.536C1784.96 511.062 1785.12 513.697 1783.59 515.415C1782.07 517.137 1779.44 517.291 1777.71 515.762L1767.71 506.876L1719.78 555.448C1718.97 556.273 1717.9 556.686 1716.82 556.686Z" fill="#35414C"/>
<path d="M1697.95 615.125C1688.97 615.125 1679.99 611.708 1673.15 604.87C1666.52 598.245 1662.87 589.435 1662.87 580.066C1662.87 570.697 1666.52 561.89 1673.15 555.265C1686.83 541.589 1709.08 541.589 1722.75 555.265C1736.43 568.941 1736.43 591.192 1722.76 604.87C1715.91 611.707 1706.93 615.125 1697.95 615.125ZM1697.95 553.335C1691.1 553.335 1684.25 555.94 1679.04 561.156C1673.99 566.207 1671.2 572.923 1671.2 580.067C1671.2 587.211 1673.99 593.927 1679.04 598.981C1689.47 609.41 1706.44 609.403 1716.87 598.981C1727.29 588.552 1727.29 571.584 1716.86 561.156C1711.65 555.943 1704.8 553.335 1697.95 553.335Z" fill="#35414C"/>
<path d="M1757.19 546.59C1756.14 546.59 1755.1 546.198 1754.29 545.413L1738.76 530.332C1737.11 528.729 1737.07 526.093 1738.67 524.442C1740.27 522.791 1742.91 522.757 1744.56 524.356L1760.09 539.436C1761.74 541.039 1761.78 543.676 1760.18 545.327C1759.36 546.167 1758.28 546.59 1757.19 546.59Z" fill="#35414C"/>
</svg>
