<svg width="44" height="44" viewBox="0 0 44 44" fill="none" xmlns="http://www.w3.org/2000/svg">
<g clip-path="url(#clip0_331_20)">
<mask id="mask0_331_20" style="mask-type:luminance" maskUnits="userSpaceOnUse" x="0" y="0" width="44" height="44">
<path d="M44 0H0V44H44V0Z" fill="white"/>
</mask>
<g mask="url(#mask0_331_20)">
<path d="M41.1253 20.2509C40.5057 18.6999 39.6147 17.2517 38.5 15.9849V9.174C38.5 8.041 37.9903 6.98867 37.0993 6.28467C36.223 5.5935 35.1028 5.34417 34.0175 5.599C30.6717 6.3965 28.1618 8.29217 26.818 11H16.9858C12.254 11 8.00617 13.123 5.21767 16.4432C3.01767 16.1224 3.28351 12.8297 5.49817 12.8333C7.89434 12.8242 7.89617 9.17582 5.49817 9.16667C-0.340996 9.14832 -2.07166 17.2444 3.17351 19.6332C-0.05133 26.2699 2.75367 34.8169 9.16484 38.3552V38.4999C9.16851 44.6434 17.8548 46.0497 19.8513 40.3334H24.1468C26.1433 46.0534 34.8297 44.6399 34.8333 38.4999V38.3314C37.6933 36.6759 39.9135 34.1147 41.1253 31.0824C42.6305 30.7614 44 29.5277 44 27.4999V23.8334C44 21.8057 42.6287 20.5719 41.1253 20.2509ZM33 23.8334C30.602 23.8224 30.602 20.1777 33 20.1667C35.398 20.1777 35.398 23.8224 33 23.8334ZM11.0953 8.272C10.065 -1.97818 25.2853 -2.97 25.6667 7.33332H16.9877C14.9325 7.33332 12.9543 7.6725 11.0953 8.272Z" fill="black"/>
</g>
</g>
<defs>
<clipPath id="clip0_331_20">
<rect width="44" height="44" fill="white"/>
</clipPath>
</defs>
</svg>
